# xmcd
#
# Track frame offsets: 
#        150
#        2806
#        14712
#        236944
#        253503
#        259905
#        269881
#        282475
#        289985
#
# Disc length: 3965 seconds
#
# Revision: 0
# Processed by: cddbd v1.5.2PL0 Copyright (c) Steve Scherf et al.
# Submitted via: ExactAudioCopy v0.95b3
#
DISCID=940f7b09
DTITLE=The Beatles  - Japan 1966 (Masterdisc) - Disc 1
DYEAR=1900
DGENRE=
TTITLE0=Band Introduction
TTITLE1=Mr Moonlight
TTITLE2=Press Conference_
TTITLE3=Welcome The Beatles
TTITLE4=Long Tall Sally
TTITLE5=Dynamite
TTITLE6=We Gotta Get Out Of This Place
TTITLE7=Kimi Ni Shibirete
TTITLE8=Caravan
EXTD=
EXTT0=
EXTT1=
EXTT2=
EXTT3=
EXTT4=
EXTT5=
EXTT6=
EXTT7=
EXTT8=
PLAYORDER=
